<?xml version="1.0" encoding="UTF-8"?>
<svg xmlns="http://www.w3.org/2000/svg" viewBox="0 0 512 512" width="64" height="64">
  <defs>
    <linearGradient id="g" x1="0%" y1="0%" x2="0%" y2="100%">
      <stop offset="0%" stop-color="#FF9A3C"/>
      <stop offset="100%" stop-color="#FF3F5E"/>
    </linearGradient>
  </defs>
  <path fill="url(#g)" d="M328.3 24.3c-74.8 57.7-57.1 136.6-50.3 171.5c10.9 61.5-14.6 103.6-40.4 131.8c-1.4 1.5-2.8 2.9-4.1 4.2c-29.3 30.5-69.4 43.3-99.9 43.3c-9.5 0-18.7-1.1-27.2-3.4C85.1 364.0 64 321.9 64 274.9c0-70.5 60.7-131.6 163.1-178.5c-7.6 13.4-12.2 27.7-12.2 42.2c0 40.2 32.6 73 72.8 73c23.7 0 45.1-11.1 58.3-28.4c2.1-2.7 4.0-5.5 5.8-8.5c3.6 12.8 5.4 26.1 5.4 39.8c0 101.1-78.7 176.7-176.6 176.7c-86.6 0-157.3-61.8-173.9-142.7c-2.2-12.2-3.3-24.8-3.3-37.5c0-74.2 30.6-146 86.1-200.7c9.6-9.2 25-8.6 33.4 1.2c8.3 9.7 7.6 24.5-1.6 34.3C80.5 72.3 64 123.3 64 167.0c0 90.6 90.7 165.9 178.3 165.9c84.2 0 151.3-56.3 151.3-136.4c0-25.0-7.2-49.1-20.8-69.5c-1.1-1.8-1.8-3.8-1.8-5.9c0-10.3 8.4-18.7 18.7-18.7c12.4 0 22.7 10.3 22.7 22.7c0 1.8-.2 3.6-.5 5.3c5.5 11.7 8.2 24.4 8.2 37.4c0 145.0-124.2 262.1-276.3 262.1c-49.3 0-95.7-12.7-134.7-34.9c-12.4-7.1-16.3-23.6-8.4-35.4c7.9-11.8 24.4-15.8 36.7-8.7c29.5 16.9 63.5 25.7 99.5 25.7c56.8 0 108.8-24.4 146.1-63.9c33.7-35.3 51.9-81.4 51.9-130.0c0-28.1-7.5-55.3-22.0-78.7c-9.3-15.8-21.2-30.1-34.4-43.2z"/>
</svg>